<?xml version="1.0" encoding="utf-8" standalone="no"?>
<!DOCTYPE svg PUBLIC "-//W3C//DTD SVG 1.1//EN"
  "http://www.w3.org/Graphics/SVG/1.1/DTD/svg11.dtd">
<svg xmlns:xlink="http://www.w3.org/1999/xlink" width="432pt" height="288pt" viewBox="0 0 432 288" xmlns="http://www.w3.org/2000/svg" version="1.1">
 <metadata>
  <rdf:RDF xmlns:dc="http://purl.org/dc/elements/1.1/" xmlns:cc="http://creativecommons.org/ns#" xmlns:rdf="http://www.w3.org/1999/02/22-rdf-syntax-ns#">
   <cc:Work>
    <dc:type rdf:resource="http://purl.org/dc/dcmitype/StillImage"/>
    <dc:date>2022-09-05T13:04:53.368284</dc:date>
    <dc:format>image/svg+xml</dc:format>
    <dc:creator>
     <cc:Agent>
      <dc:title>Matplotlib v3.5.2, https://matplotlib.org/</dc:title>
     </cc:Agent>
    </dc:creator>
   </cc:Work>
  </rdf:RDF>
 </metadata>
 <defs>
  <style type="text/css">*{stroke-linejoin: round; stroke-linecap: butt}</style>
 </defs>
 <g id="figure_1">
  <g id="patch_1">
   <path d="M 0 288 
L 432 288 
L 432 0 
L 0 0 
L 0 288 
z
" style="fill: none"/>
  </g>
  <g id="axes_1">
   <g id="patch_2">
    <path d="M 54 252 
L 388.8 252 
L 388.8 34.56 
L 54 34.56 
z
" style="fill: #ffffff"/>
   </g>
   <g id="matplotlib.axis_1">
    <g id="xtick_1">
     <g id="line2d_1">
      <defs>
       <path id="m9b4be38ad7" d="M 0 0 
L 0 3.5 
" style="stroke: #000000; stroke-width: 0.8"/>
      </defs>
      <g>
       <use xlink:href="#m9b4be38ad7" x="58.282924" y="252" style="stroke: #000000; stroke-width: 0.8"/>
      </g>
     </g>
     <g id="text_1">
      <!-- 0 -->
      <g transform="translate(55.101674 266.598437)scale(0.1 -0.1)">
       <defs>
        <path id="DejaVuSans-30" d="M 2034 4250 
Q 1547 4250 1301 3770 
Q 1056 3291 1056 2328 
Q 1056 1369 1301 889 
Q 1547 409 2034 409 
Q 2525 409 2770 889 
Q 3016 1369 3016 2328 
Q 3016 3291 2770 3770 
Q 2525 4250 2034 4250 
z
M 2034 4750 
Q 2819 4750 3233 4129 
Q 3647 3509 3647 2328 
Q 3647 1150 3233 529 
Q 2819 -91 2034 -91 
Q 1250 -91 836 529 
Q 422 1150 422 2328 
Q 422 3509 836 4129 
Q 1250 4750 2034 4750 
z
" transform="scale(0.015625)"/>
       </defs>
       <use xlink:href="#DejaVuSans-30"/>
      </g>
     </g>
    </g>
    <g id="xtick_2">
     <g id="line2d_2">
      <g>
       <use xlink:href="#m9b4be38ad7" x="112.666906" y="252" style="stroke: #000000; stroke-width: 0.8"/>
      </g>
     </g>
     <g id="text_2">
      <!-- 500 -->
      <g transform="translate(103.123156 266.598437)scale(0.1 -0.1)">
       <defs>
        <path id="DejaVuSans-35" d="M 691 4666 
L 3169 4666 
L 3169 4134 
L 1269 4134 
L 1269 2991 
Q 1406 3038 1543 3061 
Q 1681 3084 1819 3084 
Q 2600 3084 3056 2656 
Q 3513 2228 3513 1497 
Q 3513 744 3044 326 
Q 2575 -91 1722 -91 
Q 1428 -91 1123 -41 
Q 819 9 494 109 
L 494 744 
Q 775 591 1075 516 
Q 1375 441 1709 441 
Q 2250 441 2565 725 
Q 2881 1009 2881 1497 
Q 2881 1984 2565 2268 
Q 2250 2553 1709 2553 
Q 1456 2553 1204 2497 
Q 953 2441 691 2322 
L 691 4666 
z
" transform="scale(0.015625)"/>
       </defs>
       <use xlink:href="#DejaVuSans-35"/>
       <use xlink:href="#DejaVuSans-30" x="63.623047"/>
       <use xlink:href="#DejaVuSans-30" x="127.246094"/>
      </g>
     </g>
    </g>
    <g id="xtick_3">
     <g id="line2d_3">
      <g>
       <use xlink:href="#m9b4be38ad7" x="167.050889" y="252" style="stroke: #000000; stroke-width: 0.8"/>
      </g>
     </g>
     <g id="text_3">
      <!-- 1000 -->
      <g transform="translate(154.325889 266.598437)scale(0.1 -0.1)">
       <defs>
        <path id="DejaVuSans-31" d="M 794 531 
L 1825 531 
L 1825 4091 
L 703 3866 
L 703 4441 
L 1819 4666 
L 2450 4666 
L 2450 531 
L 3481 531 
L 3481 0 
L 794 0 
L 794 531 
z
" transform="scale(0.015625)"/>
       </defs>
       <use xlink:href="#DejaVuSans-31"/>
       <use xlink:href="#DejaVuSans-30" x="63.623047"/>
       <use xlink:href="#DejaVuSans-30" x="127.246094"/>
       <use xlink:href="#DejaVuSans-30" x="190.869141"/>
      </g>
     </g>
    </g>
    <g id="xtick_4">
     <g id="line2d_4">
      <g>
       <use xlink:href="#m9b4be38ad7" x="221.434871" y="252" style="stroke: #000000; stroke-width: 0.8"/>
      </g>
     </g>
     <g id="text_4">
      <!-- 1500 -->
      <g transform="translate(208.709871 266.598437)scale(0.1 -0.1)">
       <use xlink:href="#DejaVuSans-31"/>
       <use xlink:href="#DejaVuSans-35" x="63.623047"/>
       <use xlink:href="#DejaVuSans-30" x="127.246094"/>
       <use xlink:href="#DejaVuSans-30" x="190.869141"/>
      </g>
     </g>
    </g>
    <g id="xtick_5">
     <g id="line2d_5">
      <g>
       <use xlink:href="#m9b4be38ad7" x="275.818853" y="252" style="stroke: #000000; stroke-width: 0.8"/>
      </g>
     </g>
     <g id="text_5">
      <!-- 2000 -->
      <g transform="translate(263.093853 266.598437)scale(0.1 -0.1)">
       <defs>
        <path id="DejaVuSans-32" d="M 1228 531 
L 3431 531 
L 3431 0 
L 469 0 
L 469 531 
Q 828 903 1448 1529 
Q 2069 2156 2228 2338 
Q 2531 2678 2651 2914 
Q 2772 3150 2772 3378 
Q 2772 3750 2511 3984 
Q 2250 4219 1831 4219 
Q 1534 4219 1204 4116 
Q 875 4013 500 3803 
L 500 4441 
Q 881 4594 1212 4672 
Q 1544 4750 1819 4750 
Q 2544 4750 2975 4387 
Q 3406 4025 3406 3419 
Q 3406 3131 3298 2873 
Q 3191 2616 2906 2266 
Q 2828 2175 2409 1742 
Q 1991 1309 1228 531 
z
" transform="scale(0.015625)"/>
       </defs>
       <use xlink:href="#DejaVuSans-32"/>
       <use xlink:href="#DejaVuSans-30" x="63.623047"/>
       <use xlink:href="#DejaVuSans-30" x="127.246094"/>
       <use xlink:href="#DejaVuSans-30" x="190.869141"/>
      </g>
     </g>
    </g>
    <g id="xtick_6">
     <g id="line2d_6">
      <g>
       <use xlink:href="#m9b4be38ad7" x="330.202835" y="252" style="stroke: #000000; stroke-width: 0.8"/>
      </g>
     </g>
     <g id="text_6">
      <!-- 2500 -->
      <g transform="translate(317.477835 266.598437)scale(0.1 -0.1)">
       <use xlink:href="#DejaVuSans-32"/>
       <use xlink:href="#DejaVuSans-35" x="63.623047"/>
       <use xlink:href="#DejaVuSans-30" x="127.246094"/>
       <use xlink:href="#DejaVuSans-30" x="190.869141"/>
      </g>
     </g>
    </g>
    <g id="xtick_7">
     <g id="line2d_7">
      <g>
       <use xlink:href="#m9b4be38ad7" x="384.586817" y="252" style="stroke: #000000; stroke-width: 0.8"/>
      </g>
     </g>
     <g id="text_7">
      <!-- 3000 -->
      <g transform="translate(371.861817 266.598437)scale(0.1 -0.1)">
       <defs>
        <path id="DejaVuSans-33" d="M 2597 2516 
Q 3050 2419 3304 2112 
Q 3559 1806 3559 1356 
Q 3559 666 3084 287 
Q 2609 -91 1734 -91 
Q 1441 -91 1130 -33 
Q 819 25 488 141 
L 488 750 
Q 750 597 1062 519 
Q 1375 441 1716 441 
Q 2309 441 2620 675 
Q 2931 909 2931 1356 
Q 2931 1769 2642 2001 
Q 2353 2234 1838 2234 
L 1294 2234 
L 1294 2753 
L 1863 2753 
Q 2328 2753 2575 2939 
Q 2822 3125 2822 3475 
Q 2822 3834 2567 4026 
Q 2313 4219 1838 4219 
Q 1578 4219 1281 4162 
Q 984 4106 628 3988 
L 628 4550 
Q 988 4650 1302 4700 
Q 1616 4750 1894 4750 
Q 2613 4750 3031 4423 
Q 3450 4097 3450 3541 
Q 3450 3153 3228 2886 
Q 3006 2619 2597 2516 
z
" transform="scale(0.015625)"/>
       </defs>
       <use xlink:href="#DejaVuSans-33"/>
       <use xlink:href="#DejaVuSans-30" x="63.623047"/>
       <use xlink:href="#DejaVuSans-30" x="127.246094"/>
       <use xlink:href="#DejaVuSans-30" x="190.869141"/>
      </g>
     </g>
    </g>
    <g id="text_8">
     <!-- Detector position $x_D$ [Å] -->
     <g transform="translate(161.9 281.978125)scale(0.1 -0.1)">
      <defs>
       <path id="DejaVuSans-44" d="M 1259 4147 
L 1259 519 
L 2022 519 
Q 2988 519 3436 956 
Q 3884 1394 3884 2338 
Q 3884 3275 3436 3711 
Q 2988 4147 2022 4147 
L 1259 4147 
z
M 628 4666 
L 1925 4666 
Q 3281 4666 3915 4102 
Q 4550 3538 4550 2338 
Q 4550 1131 3912 565 
Q 3275 0 1925 0 
L 628 0 
L 628 4666 
z
" transform="scale(0.015625)"/>
       <path id="DejaVuSans-65" d="M 3597 1894 
L 3597 1613 
L 953 1613 
Q 991 1019 1311 708 
Q 1631 397 2203 397 
Q 2534 397 2845 478 
Q 3156 559 3463 722 
L 3463 178 
Q 3153 47 2828 -22 
Q 2503 -91 2169 -91 
Q 1331 -91 842 396 
Q 353 884 353 1716 
Q 353 2575 817 3079 
Q 1281 3584 2069 3584 
Q 2775 3584 3186 3129 
Q 3597 2675 3597 1894 
z
M 3022 2063 
Q 3016 2534 2758 2815 
Q 2500 3097 2075 3097 
Q 1594 3097 1305 2825 
Q 1016 2553 972 2059 
L 3022 2063 
z
" transform="scale(0.015625)"/>
       <path id="DejaVuSans-74" d="M 1172 4494 
L 1172 3500 
L 2356 3500 
L 2356 3053 
L 1172 3053 
L 1172 1153 
Q 1172 725 1289 603 
Q 1406 481 1766 481 
L 2356 481 
L 2356 0 
L 1766 0 
Q 1100 0 847 248 
Q 594 497 594 1153 
L 594 3053 
L 172 3053 
L 172 3500 
L 594 3500 
L 594 4494 
L 1172 4494 
z
" transform="scale(0.015625)"/>
       <path id="DejaVuSans-63" d="M 3122 3366 
L 3122 2828 
Q 2878 2963 2633 3030 
Q 2388 3097 2138 3097 
Q 1578 3097 1268 2742 
Q 959 2388 959 1747 
Q 959 1106 1268 751 
Q 1578 397 2138 397 
Q 2388 397 2633 464 
Q 2878 531 3122 666 
L 3122 134 
Q 2881 22 2623 -34 
Q 2366 -91 2075 -91 
Q 1284 -91 818 406 
Q 353 903 353 1747 
Q 353 2603 823 3093 
Q 1294 3584 2113 3584 
Q 2378 3584 2631 3529 
Q 2884 3475 3122 3366 
z
" transform="scale(0.015625)"/>
       <path id="DejaVuSans-6f" d="M 1959 3097 
Q 1497 3097 1228 2736 
Q 959 2375 959 1747 
Q 959 1119 1226 758 
Q 1494 397 1959 397 
Q 2419 397 2687 759 
Q 2956 1122 2956 1747 
Q 2956 2369 2687 2733 
Q 2419 3097 1959 3097 
z
M 1959 3584 
Q 2709 3584 3137 3096 
Q 3566 2609 3566 1747 
Q 3566 888 3137 398 
Q 2709 -91 1959 -91 
Q 1206 -91 779 398 
Q 353 888 353 1747 
Q 353 2609 779 3096 
Q 1206 3584 1959 3584 
z
" transform="scale(0.015625)"/>
       <path id="DejaVuSans-72" d="M 2631 2963 
Q 2534 3019 2420 3045 
Q 2306 3072 2169 3072 
Q 1681 3072 1420 2755 
Q 1159 2438 1159 1844 
L 1159 0 
L 581 0 
L 581 3500 
L 1159 3500 
L 1159 2956 
Q 1341 3275 1631 3429 
Q 1922 3584 2338 3584 
Q 2397 3584 2469 3576 
Q 2541 3569 2628 3553 
L 2631 2963 
z
" transform="scale(0.015625)"/>
       <path id="DejaVuSans-20" transform="scale(0.015625)"/>
       <path id="DejaVuSans-70" d="M 1159 525 
L 1159 -1331 
L 581 -1331 
L 581 3500 
L 1159 3500 
L 1159 2969 
Q 1341 3281 1617 3432 
Q 1894 3584 2278 3584 
Q 2916 3584 3314 3078 
Q 3713 2572 3713 1747 
Q 3713 922 3314 415 
Q 2916 -91 2278 -91 
Q 1894 -91 1617 61 
Q 1341 213 1159 525 
z
M 3116 1747 
Q 3116 2381 2855 2742 
Q 2594 3103 2138 3103 
Q 1681 3103 1420 2742 
Q 1159 2381 1159 1747 
Q 1159 1113 1420 752 
Q 1681 391 2138 391 
Q 2594 391 2855 752 
Q 3116 1113 3116 1747 
z
" transform="scale(0.015625)"/>
       <path id="DejaVuSans-73" d="M 2834 3397 
L 2834 2853 
Q 2591 2978 2328 3040 
Q 2066 3103 1784 3103 
Q 1356 3103 1142 2972 
Q 928 2841 928 2578 
Q 928 2378 1081 2264 
Q 1234 2150 1697 2047 
L 1894 2003 
Q 2506 1872 2764 1633 
Q 3022 1394 3022 966 
Q 3022 478 2636 193 
Q 2250 -91 1575 -91 
Q 1294 -91 989 -36 
Q 684 19 347 128 
L 347 722 
Q 666 556 975 473 
Q 1284 391 1588 391 
Q 1994 391 2212 530 
Q 2431 669 2431 922 
Q 2431 1156 2273 1281 
Q 2116 1406 1581 1522 
L 1381 1569 
Q 847 1681 609 1914 
Q 372 2147 372 2553 
Q 372 3047 722 3315 
Q 1072 3584 1716 3584 
Q 2034 3584 2315 3537 
Q 2597 3491 2834 3397 
z
" transform="scale(0.015625)"/>
       <path id="DejaVuSans-69" d="M 603 3500 
L 1178 3500 
L 1178 0 
L 603 0 
L 603 3500 
z
M 603 4863 
L 1178 4863 
L 1178 4134 
L 603 4134 
L 603 4863 
z
" transform="scale(0.015625)"/>
       <path id="DejaVuSans-6e" d="M 3513 2113 
L 3513 0 
L 2938 0 
L 2938 2094 
Q 2938 2591 2744 2837 
Q 2550 3084 2163 3084 
Q 1697 3084 1428 2787 
Q 1159 2491 1159 1978 
L 1159 0 
L 581 0 
L 581 3500 
L 1159 3500 
L 1159 2956 
Q 1366 3272 1645 3428 
Q 1925 3584 2291 3584 
Q 2894 3584 3203 3211 
Q 3513 2838 3513 2113 
z
" transform="scale(0.015625)"/>
       <path id="DejaVuSans-Oblique-78" d="M 3841 3500 
L 2234 1784 
L 3219 0 
L 2559 0 
L 1819 1388 
L 531 0 
L -166 0 
L 1556 1844 
L 641 3500 
L 1300 3500 
L 1972 2234 
L 3144 3500 
L 3841 3500 
z
" transform="scale(0.015625)"/>
       <path id="DejaVuSans-Oblique-44" d="M 1081 4666 
L 2438 4666 
Q 3519 4666 4070 4208 
Q 4622 3750 4622 2847 
Q 4622 2250 4412 1698 
Q 4203 1147 3834 769 
Q 3463 381 2891 190 
Q 2319 0 1538 0 
L 172 0 
L 1081 4666 
z
M 1613 4147 
L 909 519 
L 1734 519 
Q 2794 519 3375 1128 
Q 3956 1738 3956 2847 
Q 3956 3519 3581 3833 
Q 3206 4147 2406 4147 
L 1613 4147 
z
" transform="scale(0.015625)"/>
       <path id="DejaVuSans-5b" d="M 550 4863 
L 1875 4863 
L 1875 4416 
L 1125 4416 
L 1125 -397 
L 1875 -397 
L 1875 -844 
L 550 -844 
L 550 4863 
z
" transform="scale(0.015625)"/>
       <path id="DejaVuSans-c5" d="M 2663 5081 
Q 2663 5278 2523 5417 
Q 2384 5556 2188 5556 
Q 1988 5556 1852 5420 
Q 1716 5284 1716 5081 
Q 1716 4884 1853 4746 
Q 1991 4609 2188 4609 
Q 2384 4609 2523 4746 
Q 2663 4884 2663 5081 
z
M 2188 4044 
L 1338 1722 
L 3041 1722 
L 2188 4044 
z
M 1716 4366 
Q 1525 4494 1428 4673 
Q 1331 4853 1331 5081 
Q 1331 5441 1579 5691 
Q 1828 5941 2188 5941 
Q 2544 5941 2795 5689 
Q 3047 5438 3047 5081 
Q 3047 4863 2948 4678 
Q 2850 4494 2663 4366 
L 4325 0 
L 3669 0 
L 3244 1197 
L 1141 1197 
L 716 0 
L 50 0 
L 1716 4366 
z
" transform="scale(0.015625)"/>
       <path id="DejaVuSans-5d" d="M 1947 4863 
L 1947 -844 
L 622 -844 
L 622 -397 
L 1369 -397 
L 1369 4416 
L 622 4416 
L 622 4863 
L 1947 4863 
z
" transform="scale(0.015625)"/>
      </defs>
      <use xlink:href="#DejaVuSans-44" transform="translate(0 0.171875)"/>
      <use xlink:href="#DejaVuSans-65" transform="translate(77.001953 0.171875)"/>
      <use xlink:href="#DejaVuSans-74" transform="translate(138.525391 0.171875)"/>
      <use xlink:href="#DejaVuSans-65" transform="translate(177.734375 0.171875)"/>
      <use xlink:href="#DejaVuSans-63" transform="translate(239.257812 0.171875)"/>
      <use xlink:href="#DejaVuSans-74" transform="translate(294.238281 0.171875)"/>
      <use xlink:href="#DejaVuSans-6f" transform="translate(333.447266 0.171875)"/>
      <use xlink:href="#DejaVuSans-72" transform="translate(394.628906 0.171875)"/>
      <use xlink:href="#DejaVuSans-20" transform="translate(435.742188 0.171875)"/>
      <use xlink:href="#DejaVuSans-70" transform="translate(467.529297 0.171875)"/>
      <use xlink:href="#DejaVuSans-6f" transform="translate(531.005859 0.171875)"/>
      <use xlink:href="#DejaVuSans-73" transform="translate(592.1875 0.171875)"/>
      <use xlink:href="#DejaVuSans-69" transform="translate(644.287109 0.171875)"/>
      <use xlink:href="#DejaVuSans-74" transform="translate(672.070312 0.171875)"/>
      <use xlink:href="#DejaVuSans-69" transform="translate(711.279297 0.171875)"/>
      <use xlink:href="#DejaVuSans-6f" transform="translate(739.0625 0.171875)"/>
      <use xlink:href="#DejaVuSans-6e" transform="translate(800.244141 0.171875)"/>
      <use xlink:href="#DejaVuSans-20" transform="translate(863.623047 0.171875)"/>
      <use xlink:href="#DejaVuSans-Oblique-78" transform="translate(895.410156 0.171875)"/>
      <use xlink:href="#DejaVuSans-Oblique-44" transform="translate(954.589844 -16.234375)scale(0.7)"/>
      <use xlink:href="#DejaVuSans-20" transform="translate(1011.225586 0.171875)"/>
      <use xlink:href="#DejaVuSans-5b" transform="translate(1043.012695 0.171875)"/>
      <use xlink:href="#DejaVuSans-c5" transform="translate(1082.026367 0.171875)"/>
      <use xlink:href="#DejaVuSans-5d" transform="translate(1150.43457 0.171875)"/>
     </g>
    </g>
   </g>
   <g id="matplotlib.axis_2">
    <g id="ytick_1">
     <g id="line2d_8">
      <defs>
       <path id="m1b914986f1" d="M 0 0 
L -3.5 0 
" style="stroke: #000000; stroke-width: 0.8"/>
      </defs>
      <g>
       <use xlink:href="#m1b914986f1" x="54" y="244.874296" style="stroke: #000000; stroke-width: 0.8"/>
      </g>
     </g>
     <g id="text_9">
      <!-- 1.75 -->
      <g transform="translate(24.734375 248.673514)scale(0.1 -0.1)">
       <defs>
        <path id="DejaVuSans-2e" d="M 684 794 
L 1344 794 
L 1344 0 
L 684 0 
L 684 794 
z
" transform="scale(0.015625)"/>
        <path id="DejaVuSans-37" d="M 525 4666 
L 3525 4666 
L 3525 4397 
L 1831 0 
L 1172 0 
L 2766 4134 
L 525 4134 
L 525 4666 
z
" transform="scale(0.015625)"/>
       </defs>
       <use xlink:href="#DejaVuSans-31"/>
       <use xlink:href="#DejaVuSans-2e" x="63.623047"/>
       <use xlink:href="#DejaVuSans-37" x="95.410156"/>
       <use xlink:href="#DejaVuSans-35" x="159.033203"/>
      </g>
     </g>
    </g>
    <g id="ytick_2">
     <g id="line2d_9">
      <g>
       <use xlink:href="#m1b914986f1" x="54" y="220.043704" style="stroke: #000000; stroke-width: 0.8"/>
      </g>
     </g>
     <g id="text_10">
      <!-- 2.00 -->
      <g transform="translate(24.734375 223.842923)scale(0.1 -0.1)">
       <use xlink:href="#DejaVuSans-32"/>
       <use xlink:href="#DejaVuSans-2e" x="63.623047"/>
       <use xlink:href="#DejaVuSans-30" x="95.410156"/>
       <use xlink:href="#DejaVuSans-30" x="159.033203"/>
      </g>
     </g>
    </g>
    <g id="ytick_3">
     <g id="line2d_10">
      <g>
       <use xlink:href="#m1b914986f1" x="54" y="195.213112" style="stroke: #000000; stroke-width: 0.8"/>
      </g>
     </g>
     <g id="text_11">
      <!-- 2.25 -->
      <g transform="translate(24.734375 199.012331)scale(0.1 -0.1)">
       <use xlink:href="#DejaVuSans-32"/>
       <use xlink:href="#DejaVuSans-2e" x="63.623047"/>
       <use xlink:href="#DejaVuSans-32" x="95.410156"/>
       <use xlink:href="#DejaVuSans-35" x="159.033203"/>
      </g>
     </g>
    </g>
    <g id="ytick_4">
     <g id="line2d_11">
      <g>
       <use xlink:href="#m1b914986f1" x="54" y="170.382521" style="stroke: #000000; stroke-width: 0.8"/>
      </g>
     </g>
     <g id="text_12">
      <!-- 2.50 -->
      <g transform="translate(24.734375 174.181739)scale(0.1 -0.1)">
       <use xlink:href="#DejaVuSans-32"/>
       <use xlink:href="#DejaVuSans-2e" x="63.623047"/>
       <use xlink:href="#DejaVuSans-35" x="95.410156"/>
       <use xlink:href="#DejaVuSans-30" x="159.033203"/>
      </g>
     </g>
    </g>
    <g id="ytick_5">
     <g id="line2d_12">
      <g>
       <use xlink:href="#m1b914986f1" x="54" y="145.551929" style="stroke: #000000; stroke-width: 0.8"/>
      </g>
     </g>
     <g id="text_13">
      <!-- 2.75 -->
      <g transform="translate(24.734375 149.351148)scale(0.1 -0.1)">
       <use xlink:href="#DejaVuSans-32"/>
       <use xlink:href="#DejaVuSans-2e" x="63.623047"/>
       <use xlink:href="#DejaVuSans-37" x="95.410156"/>
       <use xlink:href="#DejaVuSans-35" x="159.033203"/>
      </g>
     </g>
    </g>
    <g id="ytick_6">
     <g id="line2d_13">
      <g>
       <use xlink:href="#m1b914986f1" x="54" y="120.721338" style="stroke: #000000; stroke-width: 0.8"/>
      </g>
     </g>
     <g id="text_14">
      <!-- 3.00 -->
      <g transform="translate(24.734375 124.520556)scale(0.1 -0.1)">
       <use xlink:href="#DejaVuSans-33"/>
       <use xlink:href="#DejaVuSans-2e" x="63.623047"/>
       <use xlink:href="#DejaVuSans-30" x="95.410156"/>
       <use xlink:href="#DejaVuSans-30" x="159.033203"/>
      </g>
     </g>
    </g>
    <g id="ytick_7">
     <g id="line2d_14">
      <g>
       <use xlink:href="#m1b914986f1" x="54" y="95.890746" style="stroke: #000000; stroke-width: 0.8"/>
      </g>
     </g>
     <g id="text_15">
      <!-- 3.25 -->
      <g transform="translate(24.734375 99.689965)scale(0.1 -0.1)">
       <use xlink:href="#DejaVuSans-33"/>
       <use xlink:href="#DejaVuSans-2e" x="63.623047"/>
       <use xlink:href="#DejaVuSans-32" x="95.410156"/>
       <use xlink:href="#DejaVuSans-35" x="159.033203"/>
      </g>
     </g>
    </g>
    <g id="ytick_8">
     <g id="line2d_15">
      <g>
       <use xlink:href="#m1b914986f1" x="54" y="71.060154" style="stroke: #000000; stroke-width: 0.8"/>
      </g>
     </g>
     <g id="text_16">
      <!-- 3.50 -->
      <g transform="translate(24.734375 74.859373)scale(0.1 -0.1)">
       <use xlink:href="#DejaVuSans-33"/>
       <use xlink:href="#DejaVuSans-2e" x="63.623047"/>
       <use xlink:href="#DejaVuSans-35" x="95.410156"/>
       <use xlink:href="#DejaVuSans-30" x="159.033203"/>
      </g>
     </g>
    </g>
    <g id="ytick_9">
     <g id="line2d_16">
      <g>
       <use xlink:href="#m1b914986f1" x="54" y="46.229563" style="stroke: #000000; stroke-width: 0.8"/>
      </g>
     </g>
     <g id="text_17">
      <!-- 3.75 -->
      <g transform="translate(24.734375 50.028781)scale(0.1 -0.1)">
       <use xlink:href="#DejaVuSans-33"/>
       <use xlink:href="#DejaVuSans-2e" x="63.623047"/>
       <use xlink:href="#DejaVuSans-37" x="95.410156"/>
       <use xlink:href="#DejaVuSans-35" x="159.033203"/>
      </g>
     </g>
    </g>
    <g id="text_18">
     <!-- $a_{\pm}/x$ [-] -->
     <g transform="translate(18.654687 161.38)rotate(-90)scale(0.1 -0.1)">
      <defs>
       <path id="DejaVuSans-Oblique-61" d="M 3438 1997 
L 3047 0 
L 2472 0 
L 2578 531 
Q 2325 219 2001 64 
Q 1678 -91 1281 -91 
Q 834 -91 548 182 
Q 263 456 263 884 
Q 263 1497 752 1853 
Q 1241 2209 2100 2209 
L 2900 2209 
L 2931 2363 
Q 2938 2388 2941 2417 
Q 2944 2447 2944 2509 
Q 2944 2788 2717 2942 
Q 2491 3097 2081 3097 
Q 1800 3097 1504 3025 
Q 1209 2953 897 2809 
L 997 3341 
Q 1322 3463 1633 3523 
Q 1944 3584 2234 3584 
Q 2853 3584 3176 3315 
Q 3500 3047 3500 2534 
Q 3500 2431 3484 2292 
Q 3469 2153 3438 1997 
z
M 2816 1759 
L 2241 1759 
Q 1534 1759 1195 1570 
Q 856 1381 856 984 
Q 856 709 1029 553 
Q 1203 397 1509 397 
Q 1978 397 2328 733 
Q 2678 1069 2791 1631 
L 2816 1759 
z
" transform="scale(0.015625)"/>
       <path id="DejaVuSans-b1" d="M 2944 4013 
L 2944 2803 
L 4684 2803 
L 4684 2272 
L 2944 2272 
L 2944 1063 
L 2419 1063 
L 2419 2272 
L 678 2272 
L 678 2803 
L 2419 2803 
L 2419 4013 
L 2944 4013 
z
M 678 531 
L 4684 531 
L 4684 0 
L 678 0 
L 678 531 
z
" transform="scale(0.015625)"/>
       <path id="DejaVuSans-2f" d="M 1625 4666 
L 2156 4666 
L 531 -594 
L 0 -594 
L 1625 4666 
z
" transform="scale(0.015625)"/>
       <path id="DejaVuSans-2d" d="M 313 2009 
L 1997 2009 
L 1997 1497 
L 313 1497 
L 313 2009 
z
" transform="scale(0.015625)"/>
      </defs>
      <use xlink:href="#DejaVuSans-Oblique-61" transform="translate(0 0.015625)"/>
      <use xlink:href="#DejaVuSans-b1" transform="translate(61.279297 -16.390625)scale(0.7)"/>
      <use xlink:href="#DejaVuSans-2f" transform="translate(122.666016 0.015625)"/>
      <use xlink:href="#DejaVuSans-Oblique-78" transform="translate(156.357422 0.015625)"/>
      <use xlink:href="#DejaVuSans-20" transform="translate(215.537109 0.015625)"/>
      <use xlink:href="#DejaVuSans-5b" transform="translate(247.324219 0.015625)"/>
      <use xlink:href="#DejaVuSans-2d" transform="translate(286.337891 0.015625)"/>
      <use xlink:href="#DejaVuSans-5d" transform="translate(322.421875 0.015625)"/>
     </g>
    </g>
    <g id="text_19">
     <!-- 1e−15 -->
     <g transform="translate(54 31.56)scale(0.1 -0.1)">
      <defs>
       <path id="DejaVuSans-2212" d="M 678 2272 
L 4684 2272 
L 4684 1741 
L 678 1741 
L 678 2272 
z
" transform="scale(0.015625)"/>
      </defs>
      <use xlink:href="#DejaVuSans-31"/>
      <use xlink:href="#DejaVuSans-65" x="63.623047"/>
      <use xlink:href="#DejaVuSans-2212" x="125.146484"/>
      <use xlink:href="#DejaVuSans-31" x="208.935547"/>
      <use xlink:href="#DejaVuSans-35" x="272.558594"/>
     </g>
    </g>
   </g>
   <g id="line2d_17">
    <defs>
     <path id="m4460a1debb" d="M 0 3 
C 0.795609 3 1.55874 2.683901 2.12132 2.12132 
C 2.683901 1.55874 3 0.795609 3 0 
C 3 -0.795609 2.683901 -1.55874 2.12132 -2.12132 
C 1.55874 -2.683901 0.795609 -3 0 -3 
C -0.795609 -3 -1.55874 -2.683901 -2.12132 -2.12132 
C -2.683901 -1.55874 -3 -0.795609 -3 0 
C -3 0.795609 -2.683901 1.55874 -2.12132 2.12132 
C -1.55874 2.683901 -0.795609 3 0 3 
z
" style="stroke: #1f77b4"/>
    </defs>
    <g clip-path="url(#paaa5986189)">
     <use xlink:href="#m4460a1debb" x="69.218182" y="214.867001" style="fill: #1f77b4; stroke: #1f77b4"/>
     <use xlink:href="#m4460a1debb" x="80.088312" y="242.116364" style="fill: #1f77b4; stroke: #1f77b4"/>
     <use xlink:href="#m4460a1debb" x="90.958442" y="238.974958" style="fill: #1f77b4; stroke: #1f77b4"/>
     <use xlink:href="#m4460a1debb" x="101.828571" y="233.836104" style="fill: #1f77b4; stroke: #1f77b4"/>
     <use xlink:href="#m4460a1debb" x="112.698701" y="229.911344" style="fill: #1f77b4; stroke: #1f77b4"/>
     <use xlink:href="#m4460a1debb" x="123.568831" y="227.610619" style="fill: #1f77b4; stroke: #1f77b4"/>
     <use xlink:href="#m4460a1debb" x="134.438961" y="225.282338" style="fill: #1f77b4; stroke: #1f77b4"/>
     <use xlink:href="#m4460a1debb" x="145.309091" y="224.04314" style="fill: #1f77b4; stroke: #1f77b4"/>
     <use xlink:href="#m4460a1debb" x="156.179221" y="222.829124" style="fill: #1f77b4; stroke: #1f77b4"/>
     <use xlink:href="#m4460a1debb" x="167.049351" y="221.795891" style="fill: #1f77b4; stroke: #1f77b4"/>
     <use xlink:href="#m4460a1debb" x="177.919481" y="221.101628" style="fill: #1f77b4; stroke: #1f77b4"/>
     <use xlink:href="#m4460a1debb" x="188.78961" y="220.595057" style="fill: #1f77b4; stroke: #1f77b4"/>
     <use xlink:href="#m4460a1debb" x="199.65974" y="220.013513" style="fill: #1f77b4; stroke: #1f77b4"/>
     <use xlink:href="#m4460a1debb" x="210.52987" y="219.647218" style="fill: #1f77b4; stroke: #1f77b4"/>
     <use xlink:href="#m4460a1debb" x="221.4" y="219.492959" style="fill: #1f77b4; stroke: #1f77b4"/>
     <use xlink:href="#m4460a1debb" x="232.27013" y="219.374183" style="fill: #1f77b4; stroke: #1f77b4"/>
     <use xlink:href="#m4460a1debb" x="243.14026" y="219.254799" style="fill: #1f77b4; stroke: #1f77b4"/>
     <use xlink:href="#m4460a1debb" x="254.01039" y="219.22197" style="fill: #1f77b4; stroke: #1f77b4"/>
     <use xlink:href="#m4460a1debb" x="264.880519" y="219.219629" style="fill: #1f77b4; stroke: #1f77b4"/>
     <use xlink:href="#m4460a1debb" x="275.750649" y="219.317904" style="fill: #1f77b4; stroke: #1f77b4"/>
     <use xlink:href="#m4460a1debb" x="286.620779" y="219.391887" style="fill: #1f77b4; stroke: #1f77b4"/>
     <use xlink:href="#m4460a1debb" x="297.490909" y="219.568902" style="fill: #1f77b4; stroke: #1f77b4"/>
     <use xlink:href="#m4460a1debb" x="308.361039" y="219.691721" style="fill: #1f77b4; stroke: #1f77b4"/>
     <use xlink:href="#m4460a1debb" x="319.231169" y="219.92796" style="fill: #1f77b4; stroke: #1f77b4"/>
     <use xlink:href="#m4460a1debb" x="330.101299" y="220.118017" style="fill: #1f77b4; stroke: #1f77b4"/>
     <use xlink:href="#m4460a1debb" x="340.971429" y="220.401839" style="fill: #1f77b4; stroke: #1f77b4"/>
     <use xlink:href="#m4460a1debb" x="351.841558" y="220.647546" style="fill: #1f77b4; stroke: #1f77b4"/>
     <use xlink:href="#m4460a1debb" x="362.711688" y="220.954099" style="fill: #1f77b4; stroke: #1f77b4"/>
     <use xlink:href="#m4460a1debb" x="373.581818" y="221.248524" style="fill: #1f77b4; stroke: #1f77b4"/>
    </g>
   </g>
   <g id="line2d_18">
    <defs>
     <path id="m58e7daaccd" d="M 0 3 
C 0.795609 3 1.55874 2.683901 2.12132 2.12132 
C 2.683901 1.55874 3 0.795609 3 0 
C 3 -0.795609 2.683901 -1.55874 2.12132 -2.12132 
C 1.55874 -2.683901 0.795609 -3 0 -3 
C -0.795609 -3 -1.55874 -2.683901 -2.12132 -2.12132 
C -2.683901 -1.55874 -3 -0.795609 -3 0 
C -3 0.795609 -2.683901 1.55874 -2.12132 2.12132 
C -1.55874 2.683901 -0.795609 3 0 3 
z
" style="stroke: #ff7f0e"/>
    </defs>
    <g clip-path="url(#paaa5986189)">
     <use xlink:href="#m58e7daaccd" x="69.218182" y="44.443636" style="fill: #ff7f0e; stroke: #ff7f0e"/>
     <use xlink:href="#m58e7daaccd" x="80.088312" y="114.063363" style="fill: #ff7f0e; stroke: #ff7f0e"/>
     <use xlink:href="#m58e7daaccd" x="90.958442" y="141.031862" style="fill: #ff7f0e; stroke: #ff7f0e"/>
     <use xlink:href="#m58e7daaccd" x="101.828571" y="153.988309" style="fill: #ff7f0e; stroke: #ff7f0e"/>
     <use xlink:href="#m58e7daaccd" x="112.698701" y="154.858943" style="fill: #ff7f0e; stroke: #ff7f0e"/>
     <use xlink:href="#m58e7daaccd" x="123.568831" y="157.654528" style="fill: #ff7f0e; stroke: #ff7f0e"/>
     <use xlink:href="#m58e7daaccd" x="134.438961" y="161.53473" style="fill: #ff7f0e; stroke: #ff7f0e"/>
     <use xlink:href="#m58e7daaccd" x="145.309091" y="163.744049" style="fill: #ff7f0e; stroke: #ff7f0e"/>
     <use xlink:href="#m58e7daaccd" x="156.179221" y="164.875218" style="fill: #ff7f0e; stroke: #ff7f0e"/>
     <use xlink:href="#m58e7daaccd" x="167.049351" y="165.939963" style="fill: #ff7f0e; stroke: #ff7f0e"/>
     <use xlink:href="#m58e7daaccd" x="177.919481" y="166.923633" style="fill: #ff7f0e; stroke: #ff7f0e"/>
     <use xlink:href="#m58e7daaccd" x="188.78961" y="167.828389" style="fill: #ff7f0e; stroke: #ff7f0e"/>
     <use xlink:href="#m58e7daaccd" x="199.65974" y="168.666845" style="fill: #ff7f0e; stroke: #ff7f0e"/>
     <use xlink:href="#m58e7daaccd" x="210.52987" y="169.440858" style="fill: #ff7f0e; stroke: #ff7f0e"/>
     <use xlink:href="#m58e7daaccd" x="221.4" y="170.137203" style="fill: #ff7f0e; stroke: #ff7f0e"/>
     <use xlink:href="#m58e7daaccd" x="232.27013" y="170.743104" style="fill: #ff7f0e; stroke: #ff7f0e"/>
     <use xlink:href="#m58e7daaccd" x="243.14026" y="171.289925" style="fill: #ff7f0e; stroke: #ff7f0e"/>
     <use xlink:href="#m58e7daaccd" x="254.01039" y="171.818727" style="fill: #ff7f0e; stroke: #ff7f0e"/>
     <use xlink:href="#m58e7daaccd" x="264.880519" y="172.328504" style="fill: #ff7f0e; stroke: #ff7f0e"/>
     <use xlink:href="#m58e7daaccd" x="275.750649" y="172.783969" style="fill: #ff7f0e; stroke: #ff7f0e"/>
     <use xlink:href="#m58e7daaccd" x="286.620779" y="173.199856" style="fill: #ff7f0e; stroke: #ff7f0e"/>
     <use xlink:href="#m58e7daaccd" x="297.490909" y="173.623413" style="fill: #ff7f0e; stroke: #ff7f0e"/>
     <use xlink:href="#m58e7daaccd" x="308.361039" y="174.031985" style="fill: #ff7f0e; stroke: #ff7f0e"/>
     <use xlink:href="#m58e7daaccd" x="319.231169" y="174.38799" style="fill: #ff7f0e; stroke: #ff7f0e"/>
     <use xlink:href="#m58e7daaccd" x="330.101299" y="174.726296" style="fill: #ff7f0e; stroke: #ff7f0e"/>
     <use xlink:href="#m58e7daaccd" x="340.971429" y="175.07912" style="fill: #ff7f0e; stroke: #ff7f0e"/>
     <use xlink:href="#m58e7daaccd" x="351.841558" y="175.409499" style="fill: #ff7f0e; stroke: #ff7f0e"/>
     <use xlink:href="#m58e7daaccd" x="362.711688" y="175.694736" style="fill: #ff7f0e; stroke: #ff7f0e"/>
     <use xlink:href="#m58e7daaccd" x="373.581818" y="175.978135" style="fill: #ff7f0e; stroke: #ff7f0e"/>
    </g>
   </g>
   <g id="patch_3">
    <path d="M 54 252 
L 54 34.56 
" style="fill: none; stroke: #000000; stroke-width: 0.8; stroke-linejoin: miter; stroke-linecap: square"/>
   </g>
   <g id="patch_4">
    <path d="M 388.8 252 
L 388.8 34.56 
" style="fill: none; stroke: #000000; stroke-width: 0.8; stroke-linejoin: miter; stroke-linecap: square"/>
   </g>
   <g id="patch_5">
    <path d="M 54 252 
L 388.8 252 
" style="fill: none; stroke: #000000; stroke-width: 0.8; stroke-linejoin: miter; stroke-linecap: square"/>
   </g>
   <g id="patch_6">
    <path d="M 54 34.56 
L 388.8 34.56 
" style="fill: none; stroke: #000000; stroke-width: 0.8; stroke-linejoin: miter; stroke-linecap: square"/>
   </g>
   <g id="text_20">
    <!-- $a_{\pm}/x$, for 500GHz $\pm$ 150GHz -->
    <g transform="translate(138.12 28.56)scale(0.12 -0.12)">
     <defs>
      <path id="DejaVuSans-2c" d="M 750 794 
L 1409 794 
L 1409 256 
L 897 -744 
L 494 -744 
L 750 256 
L 750 794 
z
" transform="scale(0.015625)"/>
      <path id="DejaVuSans-66" d="M 2375 4863 
L 2375 4384 
L 1825 4384 
Q 1516 4384 1395 4259 
Q 1275 4134 1275 3809 
L 1275 3500 
L 2222 3500 
L 2222 3053 
L 1275 3053 
L 1275 0 
L 697 0 
L 697 3053 
L 147 3053 
L 147 3500 
L 697 3500 
L 697 3744 
Q 697 4328 969 4595 
Q 1241 4863 1831 4863 
L 2375 4863 
z
" transform="scale(0.015625)"/>
      <path id="DejaVuSans-47" d="M 3809 666 
L 3809 1919 
L 2778 1919 
L 2778 2438 
L 4434 2438 
L 4434 434 
Q 4069 175 3628 42 
Q 3188 -91 2688 -91 
Q 1594 -91 976 548 
Q 359 1188 359 2328 
Q 359 3472 976 4111 
Q 1594 4750 2688 4750 
Q 3144 4750 3555 4637 
Q 3966 4525 4313 4306 
L 4313 3634 
Q 3963 3931 3569 4081 
Q 3175 4231 2741 4231 
Q 1884 4231 1454 3753 
Q 1025 3275 1025 2328 
Q 1025 1384 1454 906 
Q 1884 428 2741 428 
Q 3075 428 3337 486 
Q 3600 544 3809 666 
z
" transform="scale(0.015625)"/>
      <path id="DejaVuSans-48" d="M 628 4666 
L 1259 4666 
L 1259 2753 
L 3553 2753 
L 3553 4666 
L 4184 4666 
L 4184 0 
L 3553 0 
L 3553 2222 
L 1259 2222 
L 1259 0 
L 628 0 
L 628 4666 
z
" transform="scale(0.015625)"/>
      <path id="DejaVuSans-7a" d="M 353 3500 
L 3084 3500 
L 3084 2975 
L 922 459 
L 3084 459 
L 3084 0 
L 275 0 
L 275 525 
L 2438 3041 
L 353 3041 
L 353 3500 
z
" transform="scale(0.015625)"/>
     </defs>
     <use xlink:href="#DejaVuSans-Oblique-61" transform="translate(0 0.015625)"/>
     <use xlink:href="#DejaVuSans-b1" transform="translate(61.279297 -16.390625)scale(0.7)"/>
     <use xlink:href="#DejaVuSans-2f" transform="translate(122.666016 0.015625)"/>
     <use xlink:href="#DejaVuSans-Oblique-78" transform="translate(156.357422 0.015625)"/>
     <use xlink:href="#DejaVuSans-2c" transform="translate(215.537109 0.015625)"/>
     <use xlink:href="#DejaVuSans-20" transform="translate(247.324219 0.015625)"/>
     <use xlink:href="#DejaVuSans-66" transform="translate(279.111328 0.015625)"/>
     <use xlink:href="#DejaVuSans-6f" transform="translate(314.316406 0.015625)"/>
     <use xlink:href="#DejaVuSans-72" transform="translate(375.498047 0.015625)"/>
     <use xlink:href="#DejaVuSans-20" transform="translate(416.611328 0.015625)"/>
     <use xlink:href="#DejaVuSans-35" transform="translate(448.398438 0.015625)"/>
     <use xlink:href="#DejaVuSans-30" transform="translate(512.021484 0.015625)"/>
     <use xlink:href="#DejaVuSans-30" transform="translate(575.644531 0.015625)"/>
     <use xlink:href="#DejaVuSans-47" transform="translate(639.267578 0.015625)"/>
     <use xlink:href="#DejaVuSans-48" transform="translate(716.757812 0.015625)"/>
     <use xlink:href="#DejaVuSans-7a" transform="translate(791.953125 0.015625)"/>
     <use xlink:href="#DejaVuSans-20" transform="translate(844.443359 0.015625)"/>
     <use xlink:href="#DejaVuSans-b1" transform="translate(876.230469 0.015625)"/>
     <use xlink:href="#DejaVuSans-20" transform="translate(960.019531 0.015625)"/>
     <use xlink:href="#DejaVuSans-31" transform="translate(991.806641 0.015625)"/>
     <use xlink:href="#DejaVuSans-35" transform="translate(1055.429688 0.015625)"/>
     <use xlink:href="#DejaVuSans-30" transform="translate(1119.052734 0.015625)"/>
     <use xlink:href="#DejaVuSans-47" transform="translate(1182.675781 0.015625)"/>
     <use xlink:href="#DejaVuSans-48" transform="translate(1260.166016 0.015625)"/>
     <use xlink:href="#DejaVuSans-7a" transform="translate(1335.361328 0.015625)"/>
    </g>
   </g>
   <g id="legend_1">
    <g id="patch_7">
     <path d="M 328.2 71.91625 
L 381.8 71.91625 
Q 383.8 71.91625 383.8 69.91625 
L 383.8 41.56 
Q 383.8 39.56 381.8 39.56 
L 328.2 39.56 
Q 326.2 39.56 326.2 41.56 
L 326.2 69.91625 
Q 326.2 71.91625 328.2 71.91625 
z
" style="fill: #ffffff; opacity: 0.8; stroke: #cccccc; stroke-linejoin: miter"/>
    </g>
    <g id="line2d_19">
     <g>
      <use xlink:href="#m4460a1debb" x="340.2" y="47.658437" style="fill: #1f77b4; stroke: #1f77b4"/>
     </g>
    </g>
    <g id="text_21">
     <!-- $a_{+}/x$ -->
     <g transform="translate(358.2 51.158437)scale(0.1 -0.1)">
      <defs>
       <path id="DejaVuSans-2b" d="M 2944 4013 
L 2944 2272 
L 4684 2272 
L 4684 1741 
L 2944 1741 
L 2944 0 
L 2419 0 
L 2419 1741 
L 678 1741 
L 678 2272 
L 2419 2272 
L 2419 4013 
L 2944 4013 
z
" transform="scale(0.015625)"/>
      </defs>
      <use xlink:href="#DejaVuSans-Oblique-61" transform="translate(0 0.09375)"/>
      <use xlink:href="#DejaVuSans-2b" transform="translate(61.279297 -16.3125)scale(0.7)"/>
      <use xlink:href="#DejaVuSans-2f" transform="translate(122.666016 0.09375)"/>
      <use xlink:href="#DejaVuSans-Oblique-78" transform="translate(156.357422 0.09375)"/>
     </g>
    </g>
    <g id="line2d_20">
     <g>
      <use xlink:href="#m58e7daaccd" x="340.2" y="62.336562" style="fill: #ff7f0e; stroke: #ff7f0e"/>
     </g>
    </g>
    <g id="text_22">
     <!-- $a_{-}/x$ -->
     <g transform="translate(358.2 65.836562)scale(0.1 -0.1)">
      <use xlink:href="#DejaVuSans-Oblique-61" transform="translate(0 0.09375)"/>
      <use xlink:href="#DejaVuSans-2212" transform="translate(61.279297 -16.3125)scale(0.7)"/>
      <use xlink:href="#DejaVuSans-2f" transform="translate(122.666016 0.09375)"/>
      <use xlink:href="#DejaVuSans-Oblique-78" transform="translate(156.357422 0.09375)"/>
     </g>
    </g>
   </g>
  </g>
 </g>
 <defs>
  <clipPath id="paaa5986189">
   <rect x="54" y="34.56" width="334.8" height="217.44"/>
  </clipPath>
 </defs>
</svg>
